<?xml version="1.0" encoding="utf-8"?>
<svg viewBox="0 0 8000 5333.3335" xmlns="http://www.w3.org/2000/svg">
  <g transform="matrix(1.333333, 0, 0, -1.333333, 0, 5333.333496)" id="g10">
    <g transform="scale(0.1)" id="g12">
      <g transform="scale(3.64154)" id="g18">
        <path id="path20" style="fill:none;stroke:#000000;stroke-width:21.96870041;stroke-linecap:round;stroke-linejoin:round;stroke-miterlimit:10;stroke-dasharray:none;stroke-opacity:1" d="m 126.378,680.179 c 1536.592,14.362 3045.712,1.29 4608.162,-17.218 -43.48,53.22 -44.3,131.566 -19.78,195.796 24.5,64.204 70.39,117.561 115.42,169.513 64.97,74.94 131.57,151.26 217.19,201.32 85.62,50.09 222.68,42.67 311.9,-0.71 113.63,-55.26 123.55,-554.359 -86.66,-577.837 -184.08,-20.567 -376.11,-60.881 -548.51,71.427 -145.24,111.49 194.12,310.55 291.2,465.82 9.94,15.9 20.29,33.75 17.08,52.26 -3.57,20.51 -22.3,34.16 -36.44,49.45 -46.85,50.7 -46.91,127.59 -44.19,196.57 11.23,286.09 49.95,1258.7 54.7,1526.47 53.63,742.4 -23.31,888.61 -61.12,1905.32 37.67,83.32 76.09,167.84 135.16,237.62 59.09,69.8 142.63,124.15 234.02,127.28 -45.47,41.77 -151.58,131.18 -99.46,98.03 69.91,-44.43 107.4,-88.03 183.57,-136.48 26.45,-16.8 72.36,-24.82 79.61,5.66 3.24,13.59 -4.83,27.05 -12.55,38.69 -46.19,69.78 -53.93,51.71 -100.15,121.49 -28.39,42.89 -90.21,130.27 -128.62,164.49 -38.45,34.19 -121.19,53.22 -179.85,79.56 -163.14,260.93 -246.81,603.64 -297.59,907.17 -13.04,77.93 -22.96,158.91 -62.99,227.07 -40.07,68.13 -120.34,120.22 -196.74,99.99 93.29,-25.32 174.9,-90.95 219.64,-176.66 57.8,87.05 115.58,174.1 159.35,278.67 -180.2,65.09 -349.85,159.25 -522.55,254.24 -167.68,-245.81 -181.38,-571.27 -105.45,-859.01 75.9,-287.73 396.48,-728.1 562.21,-996.28 29.22,-233.61 19.99,-280.4 123.32,-485.95 -150.43,-134.09 -341.83,-277.98 -533.84,-216.75 -143.04,45.64 -227.37,190.33 -290.7,326.46 -81.58,175.36 -151.17,357.1 -192.97,545.92 -29.3,132.39 -43.99,274.75 6.87,400.44 50.86,125.68 184.95,226.14 317.67,198.46 150.24,-31.31 226.14,-195.72 279.38,-339.64 43.83,-118.49 87.66,-236.99 131.52,-355.48 46.65,-126.16 94.08,-257.78 80.7,-391.62 -13.4,-133.85 -107.26,-269.89 -240.97,-284.52 -103.17,-11.29 -203.04,52.23 -264.06,136.2 -61.02,83.95 -90.59,186.05 -119.02,285.87 -129.86,455.93 -257.75,950.18 -90.32,1393.67 24.11,63.85 54.68,131.21 39,197.66 -15.68,66.43 -107.68,55.58 -119.18,112.51 79.69,196.34 159.41,392.66 239.13,589.01 37.73,92.93 90.18,198.54 188.71,217.35 40.37,7.72 91.01,-8.84 100.07,-48.93 6.59,-29.19 -11.12,-57.75 -27.63,-82.74 -140.85,-213.59 -250.11,-448 -323.1,-693.23 -7.06,-23.72 -24.42,-53.6 -47.79,-45.44 -21.5,7.49 -19.69,38.22 -13.45,60.11 74.47,260.49 188.13,509.73 335.96,736.75 15.98,24.52 33.14,49.56 58.19,64.69 25.04,15.14 60.24,17.47 98.52,-52.78 -55,-89.13 -109.98,-178.27 -164.98,-267.41 133.93,234.27 267.88,468.51 401.81,702.78 56.73,99.24 114.92,200.29 199.94,276.7 85.02,76.4 203.02,125.32 327.31,101.92 85.43,-360.03 47.72,-748.08 -105.4,-1084.92 56.71,-68.81 174.13,-51.59 236.99,11.65 62.83,63.24 84.96,155.23 103.12,242.53 51.21,246.11 92.02,496.61 81.47,747.76 -1.32,31.4 -3.84,64.11 -19.8,91.19 -25.65,43.45 -81.12,61.9 -131.4,57.73 -50.28,-4.16 -96.93,-26.76 -142.22,-48.99 70.96,-13.74 148.35,-31.32 192.31,-88.68 41.27,-53.83 41.3,-127.73 37.37,-195.45 -15.24,-262.37 -62.41,-522.89 -141.42,-775.61 -49.68,-83.29 -175.8,-107.87 -253.13,-49.32 -94.19,-199.06 -221.12,-382.59 -374.13,-540.95 -14.94,-15.46 -30.59,-31.42 -37.51,-51.77 -6.92,-20.37 -2.06,-46.52 16.67,-57.03 23.42,-13.16 51.82,3.79 72.91,20.4 201.12,158.62 373.88,353.09 523.54,571.96 -55.25,-5 -110.5,-10 -165.76,-15 -122.66,-246.65 -268.65,-481.69 -435.39,-700.96 374.27,-13.16 748.5,-26.31 1155.69,-48.53 -44.18,-397.3 -65.66,-797.11 -64.26,-1196.85 -160.67,-11.46 -322.94,-0.47 -480.62,32.57 185.5,2.69 332.53,-27.55 518.03,-24.86 10.84,206.62 34.65,357.32 98.06,588.38 -13.7,13.81 -46.9,60.47 -46.6,79.94 1.51,103.53 126.1,183.41 224.99,214.17 115.36,35.89 -202.45,-279.09 -277.33,-181.66 -86.92,113.06 181.54,182.37 259.23,301.96 62.28,95.87 -166.58,-131.54 -259.34,-182.75 -24.03,-13.29 -61.02,-22.33 -73.21,2.28 -8.9,17.96 4.78,38.47 17.85,53.71 74.2,86.48 210.54,219.25 236.33,274.2 19.36,41.3 -159.28,-306.52 -238.75,-239.07 -52.75,44.76 24.74,162.12 59.18,222.13 34.46,60 87.87,112.34 161,118.77 47.59,-29.33 95.18,-58.69 142.77,-88.04 20.98,-12.94 44.35,-29.74 45.48,-54.38 0.82,-18.04 -10.74,-37.81 -0.97,-53.02 9.37,-14.53 32.16,-13.93 43.31,-27.14 18.18,-21.5 -8.95,-52.69 -7.66,-80.84 0.96,-21.34 18.21,-37.73 29.3,-55.99 24.74,-40.75 18.32,-95.1 -6.37,-135.85 -24.72,-40.78 -64.92,-69.84 -106.91,-92.38 -60.11,-32.27 -126.15,-53.41 -167.43,-65.47 -10.54,42.15 23.21,85.05 63.74,100.7 40.53,15.65 85.62,11.23 128.9,7.53 230.54,-19.83 768.85,31.08 912.03,182.53 50.4,53.3 100.04,105.81 16.67,580.38 -83.59,-1.86 -338.43,-22.24 -364.4,-33.63 -36.11,-15.85 -60,-52.07 -70.6,-90.05 -10.61,-37.98 -9.78,-78.07 -8.9,-117.48 60.36,17.66 120.72,35.29 181.08,52.92 -26.86,23.37 -66.62,26.45 -101.09,17.55 -34.43,-8.9 -65.16,-28.04 -96.17,-45.48 -126.32,-71.07 -266.45,-117.39 -384.92,-144.58 8.79,-101.17 18.49,-205.6 66.76,-294.96 64.09,-118.63 278.51,-114.4 322.83,-101.03 44.3,13.41 -32.95,-366.85 69.7,-898.38 -389.92,-134.75 -837.89,-90.18 -1193.62,118.8 -32.26,18.97 -92.79,22.98 -88.42,-14.2 2.28,-19.2 24.22,-28.48 42.84,-33.75 314.26,-88.95 645.93,-115.99 970.49,-79.14 66.9,7.58 146.2,13.32 189.48,-38.23 27.44,-32.68 30.79,-78.62 32.87,-121.21 11.43,-233.88 22.88,-467.77 -8.48,-710.66 6.56,-365.95 51.6,-732.38 27.13,-1150.78 -33.89,-580.22 -116.57,-1295.3 -151.78,-1903.2 -134.61,-61.08 -285.95,-84.78 -417.38,-84.97 9.34,-73.1 -19.77,-144.8 -36.66,-216.5 -16.91,-71.728 -18.12,-156.746 34.44,-208.428 44.68,-43.937 113.47,-49.402 176.11,-51.434 235.09,-7.634 470.57,-2.774 705.14,14.554 57.75,4.283 130.33,22.353 138.92,79.609 7.86,52.231 -45.5,90.978 -91.77,116.434 -102.4,56.295 -204.81,112.585 -307.21,168.885 -151.47,83.26 -330.96,168.47 -489.54,99.79 -43.72,-18.92 -92.9,-49.18 -134.78,-26.47 -34.88,18.89 -43.17,64.37 -47.56,103.78 -21.12,188.71 -42.24,981.53 -71.57,1201.79 -58.62,524.01 -7.22,643.08 -114.48,1448.49 -19.36,145.29 -61.35,1189.66 -12.22,1051.56 111.13,-312.34 -166.88,-1358.6 -213.34,-1791.36 -82.74,-580.28 -165.48,-1160.58 -248.2,-1740.86 -12.76,-89.58 -34.73,-192.61 -115.44,-233.47 -79.03,-40.07 -179.81,4.56 -231.96,76.2 -52.15,71.62 -67.61,162.74 -81.65,250.23 -34.49,215.1 -69.09,432.07 -58.9,649.69 10.16,217.63 68.54,438.8 202.75,610.41 50.91,65.11 112.72,123.43 147.05,198.59 34.32,75.16 32.13,176.25 -32.68,227.49 -34.41,27.21 -79.83,35.62 -118.55,56.27 -123,65.63 -147.11,231.63 -133.57,370.39 13.57,138.76 48.44,285.76 -5.16,405.84 25.15,150.98 -2.64,304.98 -22.44,456.76 -19.8,151.78 -30.73,311 25.43,453.38 56.16,142.36 197.72,261.81 374.24,252.5 345.76,11.54 691.49,23.07 1037.23,34.6 22.79,0.77 46.79,1.87 66.09,13.98 31.64,19.86 40.01,61.4 45.53,98.31 24.5,164.44 48.99,328.85 98.95,462.22 -5.88,90.43 -5.28,196.24 66.07,252.12 211.45,165.62 394.8,121.02 423.99,345.19 87.93,675.43 -451.84,363.47 -451.54,397.6 1.46,163.61 74.28,448.05 75.74,611.67 1.02,115.28 46.49,560.45 89.36,453.46 84.47,-210.85 -185.66,-913.54 2.17,-1052.69 100.26,-74.28 238.41,44.05 361.88,25.98 -30.18,323.6 -60.36,647.17 -90.54,970.74 -10.85,116.44 -23.67,238.5 -89.72,335 -76.31,111.51 -208.78,167.88 -351.69,208.26 -24.8,32.67 -67.85,50.45 -108.47,44.81 16.15,-91.22 -37.35,-186.86 -118.03,-232.39 -80.68,-45.53 -182.5,-44.68 -268.54,-10.33 -86.03,34.33 -157.32,99.16 -212.38,173.66 -48.66,65.84 -85.98,140.01 -127.01,232.09 -64.28,-9.78 -128.57,-19.56 -192.85,-29.33 -14.26,-2.17 -31.53,-6.95 -34.77,-21.02 -4.64,-20.11 23.1,-30.85 43.75,-31.06 166.71,-1.7 326.97,119.86 375.41,309.67 -84.52,270.79 -169.95,556.12 -112.01,833.82 15.35,73.59 42.15,147.54 94.77,201.22 52.61,53.7 135.63,82.56 240.58,66.2 150.52,64.75 326.13,68.8 479.47,11.06 153.34,-57.75 282.68,-176.65 353.07,-324.6 6.53,-13.7 12.66,-28.04 13.26,-43.2 2.28,-55.5 -72.8,-86.6 -123.77,-64.48 -50.94,22.11 -80.59,74.63 -106.63,123.7 32.11,-39.23 54.27,-86.52 63.85,-136.29 -104.32,-14.58 -214.47,19.89 -291.91,91.34 -83.01,-54.24 -203.87,-40.41 -272.49,31.19 -32,-59.05 -120.26,-77.7 -173.39,-36.65 95.64,-138.59 105.17,-258.49 -18.95,-372.3 -39.93,104.41 40.67,169.31 -107.92,164.38 -59.32,-1.98 -113.72,-144.61 -94.5,-200.75 19.23,-56.14 70.36,-94.14 141.04,-164.13 -6.09,-87.72 33.31,-173.74 89.61,-241.29 56.29,-67.56 128.63,-119.52 200.13,-170.71 67.45,-48.29 148.9,-99.06 227.77,-73.31 66.83,21.83 104.73,90.88 133.24,155.18 73.21,165.28 127.85,338.79 162.51,516.22 13.92,71.31 24.63,144.86 11.64,216.34 -11.59,63.85 -41.49,122.69 -71.04,180.48 -28.7,56.16 -58.46,113.7 -105.56,155.66 -59.48,52.99 -139.56,75.08 -216.64,95.15 -75.6,19.68 -152.19,39.1 -230.28,39.66 -78.08,0.57 -159,-19.59 -217.96,-70.81 -70.91,-61.59 -100.18,-157.81 -117.53,-250.11 -44.71,-237.98 -31.56,-486.62 38.06,-718.54 34.4,43.7 108.38,18.58 141.86,-25.83 33.47,-44.4 46.93,-102.22 84.25,-143.44 34.6,-38.2 85.07,-57.15 133.68,-74.28 48.6,-17.14 99.24,-34.96 135.3,-71.79 36.05,-36.82 52.09,-98.91 20.57,-156.86 -27.55,-44.52 19.93,-102.7 71.23,-113.16 51.3,-10.46 104.02,6.65 156.39,6.21 119.95,-0.96 222.93,-96.14 270.05,-206.45 47.12,-110.31 49.68,-233.81 50.69,-353.76 1.05,-119.95 1.87,-243.19 84.75,-380.63 524.56,41.96 1049.14,83.95 1593.17,104.32 29.6,-434.76 114.16,-842.03 115.67,-1270.37 -109.27,-14.72 -218.57,-29.46 -341.23,-50.83 -55.15,57.7 -124.73,161.53 -165.4,173.09 -77.66,22.1 80.21,-297.84 57.72,-220.32 -33.99,117.07 -110.99,229.63 -164.9,237.54 -45.67,6.7 -23.89,-89.8 -11.45,-134.23 12.44,-44.46 36.52,-84.61 60.3,-124.15 -45.28,71.64 -90.54,143.29 -135.82,214.93 -6.62,10.47 -15.24,22.11 -27.6,22.36 -11.81,0.22 -21.31,-11.04 -23.31,-22.69 -2.03,-11.64 1.48,-23.45 5,-34.73 19.33,-62.51 38.66,-125.01 57.99,-187.51 -11.34,60.55 -39.1,117.95 -79.5,164.41 -12.46,14.34 -32.76,28.59 -48.68,18.26 -13.68,-8.84 -12.69,-28.8 -10.11,-44.9 10.96,-68.15 22.66,-138.32 58.88,-197.08 36.22,-58.8 103.52,-104 188.43,-102.46 60.31,12.63 122.62,11.7 183.61,20.43 60.99,8.73 123.65,29.17 164.73,75.11 41.06,45.94 52.02,122.61 10.8,168.42 -41.25,45.77 -134.62,30.15 -145.82,-30.43 75.93,-18.13 111.38,-126.4 60.83,-185.91 296.05,-30.73 841.59,249.29 966.51,484.33 137.19,258.18 92.43,600.84 166.11,1024.81 29.05,167.21 57.17,372.15 -6.01,529.67 -63.19,157.51 -205.52,216.52 -527.55,317.42 -99.36,11.6 -194.29,58.17 -264.29,129.66 -70,71.48 -114.54,167.38 -142.77,267.25 -16.23,63.83 -32.46,127.66 -48.71,191.48 -5.03,19.79 -9.92,41.5 -1.18,59.95 9.64,20.37 34.49,30.63 56.84,27.68 22.33,-2.94 41.99,-16.9 56.71,-33.96 29.76,-34.47 42.04,-83.33 32.07,-127.78 -9.94,-44.44 -41.88,-83.4 -83.51,-101.89 -12.14,66.87 -34.57,132.64 -72.77,188.85 -77.55,114.15 -210.1,177.08 -333.43,282.81 -88.78,-97.04 -177.53,-194.08 -266.32,-291.12 -18.83,-20.61 -38.03,-41.73 -49.07,-67.39 -24.66,-57.32 -3.73,-123.49 22.38,-180.17 46.05,-100.02 108.09,-192.66 183.06,-273.32 50.72,-54.56 113.03,-106.22 187.31,-111.87 65.47,-5 129.45,27.76 175.94,74.13 46.52,46.36 78.13,105.31 107.15,164.2 -32.84,-149.75 -188.32,-261.87 -340.79,-245.72 0,0 -14.5,-4.17 -23.59,-7 20.9,-112.15 -0.05,-227.3 -3.43,-341.31 -3.35,-114.05 15.74,-238.31 97.95,-317.42 -96.03,-35.43 -214.19,4.72 -268.78,91.28 22.95,-62.34 72.71,-114.3 134.03,-139.86 -73.89,-72.09 -203.59,-60.61 -282.02,6.51 -78.43,67.11 -111.66,174.87 -114.29,278.07 -2.64,103.19 21.28,204.91 38.61,306.68 17.33,101.77 27.9,207.82 12.77,295.45 17.93,140.44 4.78,282.71 3.1,424.27 -1.67,141.57 9.2,287.42 71.01,414.8 61.79,127.37 183.99,233.34 325.36,240.85 -5.16,-70.15 -10.3,-140.29 -15.46,-210.44 -16.42,63.71 2.01,135.31 47.15,183.16 45.17,47.85 115.58,70.37 180.14,57.62 75.44,-14.9 135.28,-72.56 180.23,-134.92 92.19,-127.86 140.19,-286.94 149.64,-439.53 11.47,-137.75 25.97,-283.77 109.59,-393.85 84.75,-111.59 234.21,-177.17 279.8,-316.89 -73.7,35.26 -161.28,70.59 -233.58,32.52 -59.87,-31.53 -85.65,-101.61 -114.32,-162.87 -46.88,-100.23 -113.99,-190.94 -196.13,-265.05 -62.61,-56.52 -147.74,-105.73 -227.79,-79.12 -91.66,30.48 -125.41,140.13 -152.98,206.15 -34.16,-44.4 -41.55,-103.06 -60.83,-155.68 -19.27,-52.58 -61.78,-106.11 -117.75,-103.61 -38.83,1.76 -71.18,30.43 -94.57,61.46 -23.43,31 -41.94,66.37 -71.16,92 -29.24,25.62 -74.33,39.15 -107.09,18.26 -30.32,-19.36 -38.59,-59.24 -44.19,-94.77 -21.66,-138.13 -43.33,-276.26 -82.38,-423.97 -266.81,-14.58 -533.62,-29.16 -800.43,-43.75 86.83,-400.62 80.95,-819.51 218.2,-1250.1 50.89,30.9 101.8,61.76 152.69,92.66 19.55,11.86 39.54,23.89 61.84,28.91 22.3,5 47.73,1.81 64.42,-13.81 -28.28,-68.1 -83.75,-124.48 -151.36,-153.86 74.83,93.28 191.45,151.72 310.99,155.78 -25.65,-80.79 -96.19,-145.65 -178.82,-164.46 36.49,29.82 73.48,60 116.27,79.83 42.75,19.82 92.62,28.55 137.38,13.75 -28.61,-61.32 -83.04,-110.11 -147.16,-131.86 59.18,43.55 132,68.24 205.46,69.64 -14.58,-48.44 -37.51,-95.84 -75.19,-129.59 -37.64,-33.72 -92.02,-51.68 -140.32,-36.72 -17.55,5.44 -34.63,15.05 -52.95,13.62 -23.42,-1.81 -41.74,-21.06 -64.25,-27.7 -39.82,-11.76 -85.08,27.95 -78.57,68.95 -39.54,-21.42 -85.21,-39.43 -128.63,-27.68 -43.41,11.75 -76.15,66.32 -33.17,96.39 56.73,-55.66 152.66,-18.29 229.85,-37.29 28.26,-6.95 54.1,-21.73 82.35,-28.65 76.81,-18.78 153.65,22.39 227.13,51.55 111.38,44.27 232.93,62.64 352.44,53.33 0,0 22.49,-47.37 22.49,-64.21 -62.83,-24.44 -125.69,-48.9 -188.52,-73.37 -4.37,-50.89 -8.71,-101.74 -13.05,-152.63 538.62,-101.41 1109.95,-20.13 1617.62,233.23 -28.76,115.85 -57.51,231.71 -86.26,347.6 -69.37,-1.51 -104.05,-92.11 -84.94,-158.84 19.12,-66.73 70.17,-119.01 102.13,-180.64 35.54,-68.48 46.6,-146.69 55.86,-223.31 36.96,-305.99 53.46,-614.46 50.2,-943.14 -8.11,-467.74 -16.21,-935.49 -24.31,-1403.23 -21.64,-6.7 -47.34,9.01 -51.27,31.34 -3.92,22.29 14.91,45.83 37.54,46.93 136.24,-575.2 64.4,-1176.73 6.34,-1779.83 -4.44,-124.2 -8.89,-248.41 -13.34,-372.61 -115.23,-13.87 -230.42,-27.74 -357.6,-78.08 -36.88,-127.25 -73.76,-254.503 -110.64,-381.757 -6.51,-22.408 -12.74,-47.563 -1.67,-68.104 13.34,-24.769 45.31,-31.36 73.26,-34.655 104.57,-12.33 210.14,-16.092 315.31,-11.231 78.37,3.624 169.21,20.045 205.9,89.412 32.32,61.128 7.39,135.519 -17.93,199.865 -25.37,64.58 -51.74,130.74 -98.56,181.95 -46.79,51.22 -119.29,84.97 -186.21,66.65 -39.13,-10.71 -71.59,-37.37 -107.37,-56.57 -35.76,-19.17 -81.15,-30.4 -115.86,-9.36 -31.41,19.05 -43.72,57.86 -52.39,93.55 -53,217.49 -63.05,445.39 -44.63,720.63 -37.98,477.52 -161.66,874.58 -173.5,1317.17 -98.36,542.93 -307.12,2247.04 -244.95,1698.81 45.75,-403.67 80.43,-1867.75 341.07,-2778 -7.94,-335.98 6.56,-672.49 43.36,-1006.55 -115.04,-38.86 -239.19,-50.45 -382.53,-60.36 -140.22,-94.74 -280.43,-189.508 -420.68,-284.248 -45.2,-30.565 -96.6,-81.066 -73.23,-130.385 18.86,-39.79 72.55,-44.679 116.59,-43.909 147.28,2.553 294.55,5.079 441.82,7.633 99.05,1.702 209.61,8.265 277.36,80.515 95.89,102.209 49.59,266.754 -2.23,396.974 -108.19,-55.55 -354.65,-109.71 -453.32,-38.61 -78.21,56.35 -37.35,137.77 -43.17,234 -20.84,343.72 -187.67,935.75 -196.21,1324.93 18.04,495.78 -125.71,980.93 -239.15,1463.89 -113.42,482.98 -180.2,1165.44 -73.49,1539.48 4.5,62.26 9.03,124.48 13.57,186.71 -69.73,-5.85 -139.45,-11.7 -209.17,-17.55 145.7,39.05 299.43,29.74 450,20.13 70.32,-4.48 140.62,-8.98 210.95,-13.46 49.38,-3.15 104,-4.69 142.25,26.67 24.69,20.24 38.53,51.46 63.6,71.2 29.99,23.62 70.6,27 108.61,30.43 178.58,16.12 355.18,54.1 524.58,112.87 0.72,23.28 1.43,46.6 2.12,69.88 -108.66,-27.05 -217.33,-54.09 -325.61,-92.05 103.48,33.45 206.95,66.87 310.42,100.32 -122.78,16.89 -246.82,24.82 -372.29,39.9 44.35,125.72 207.39,193.3 327.69,135.77 -42.92,-41.74 -118.85,-33.18 -162.43,7.88 -43.58,41.05 -58.74,105.12 -55.19,164.87 3.51,59.76 23.23,117.18 39.76,174.71 60.22,209.55 79.69,428.36 122.26,642.2 42.56,213.81 112.01,429.54 254.81,594.31 25.23,29.14 53.99,57.34 90.42,69.94 36.45,12.63 82.28,5.44 88.62,-14.99 99.3,-162.57 135.11,-315.86 116.96,-514.65 -93.37,-4.25 -186.74,-8.51 -280.1,-12.74 -11.7,-0.55 -24.66,-1.65 -32.6,-10.21 -11.18,-12.09 -5.35,-33.09 7.55,-43.34 12.88,-10.24 30.13,-12.63 46.47,-14.66 92.48,-11.45 184.94,-22.93 276.75,-55.2 21.94,-33.69 0.11,-80.29 -31.61,-105.01 -31.72,-24.71 -71.73,-36.74 -104.02,-60.71 -32.27,-23.95 -56.19,-68.9 -36.66,-104.03 53.85,17.61 107.67,35.21 161.52,52.81 21.78,72 43.53,144.01 65.3,216.01 -23.53,-38.42 -47.37,-77.47 -59.12,-120.94 -11.78,-43.47 -10.02,-92.73 15.1,-130.11 25.13,-37.37 77.25,-57.86 117.81,-38.33 -15.29,66.4 -10.49,137.27 13.6,201.01 -18.98,-48.5 -38.29,-100.97 -25.38,-151.42 12.88,-50.45 73.71,-91.12 118.11,-63.93 2.75,76.48 19.74,152.38 49.91,222.71 -28.5,-32.21 -53.81,-68.93 -63.23,-110.89 -9.45,-41.96 -0.46,-89.99 31.03,-119.26 31.5,-29.27 87.1,-32.32 115.9,-0.44 -0.8,37.68 -30.2,72.8 -67.2,80.21 99.4,-63.71 228.4,-78.73 289.9,-42.04 302.3,-162.29 620.4,-295.18 948.4,-396.15 93.4,-28.78 195.9,-54.7 286.9,-18.95 115.1,45.23 174.8,179.51 171.3,303.17 -3.5,123.66 -56.8,239.76 -112.9,354.9 -151.9,7.78 -303.8,15.52 -455.6,23.29 -21.6,-98.94 74.7,-204.25 175.1,-191.62 -300.7,110.47 -632.4,148.37 -959.7,174.38 -188.1,46.98 -376.3,93.97 -561.72,136.89 -33.62,-1.54 -64.89,20.15 -84.01,47.84 -19.11,27.7 -28.31,60.88 -37.18,93.34 -24.05,88.03 -48.14,176.05 -72.19,264.09 -16.86,61.7 -59.92,134.28 -26.45,188.79 38.91,63.35 172.13,108.36 319.73,202.28 184.52,117.4 250.12,51.64 278.52,168.93 99.3,46.97 196.1,99.09 289.9,156.08 -52.6,-53.67 -108.2,-106.84 -176.5,-138.24 -68.3,-31.4 -152.4,-37.76 -216.6,1.4 -57.5,35.09 -89.7,99.39 -115.54,161.59 -79.58,191.24 -128.02,395.38 -137.91,648.02 -28.61,51.83 -57.47,104.31 -72.58,161.54 -15.07,57.23 -15.24,120.62 12.14,173.11 37.79,72.49 118.55,110.25 195.03,139.2 111.26,42.12 227.96,76.76 346.86,73.77 118.9,-2.99 241.5,-48.39 323.6,-156.01 118.8,-36.17 251.5,-84.54 300.6,-198.64 43.5,-101.32 4.3,-217.28 -34.9,-320.36 -66.6,-174.88 -133.2,-349.75 -210.5,-536.31 -25.3,77.2 -41.1,157.5 -47.1,238.52 48.5,-1.6 94,31.06 117,73.87 22.9,42.82 26.1,93.9 19.1,141.97 -4.4,30.67 -13.3,61.88 -33.6,85.28 -20.3,23.4 -54.2,37.04 -83.3,26.35 -27.2,-10.02 -43.6,-37.75 -53.7,-64.96 -26.7,-71.87 -23.7,-154.26 8.2,-223.99 -8.9,61.51 -17.7,123.01 -26.6,184.51 -1.7,11.81 -3.8,24.52 -12.4,32.84 -16.2,15.79 -42.7,6.32 -65.3,5.59 -40.6,-1.3 -76.3,30.31 -92.7,67.41 -16.4,37.09 -17.5,78.87 -18.7,135.56 -11,64.81 -87.6,100.02 -152.9,92.44 -65.2,-7.57 -122.5,-44.9 -180.8,-75.31 -58.2,-30.41 -126.01,-55.02 -188.65,-35.16 -91.94,29.15 -131.26,148.83 -98.42,239.51 32.82,90.69 117.84,153.07 206.77,190.32 141.3,59.13 303.2,67.43 449.7,23.06 55,-16.67 118.5,-60.56 103.1,-115.99 -8.5,-30.64 -38.5,-49.15 -62.3,-70.21 -23.8,-21.07 -43.9,-56.35 -26.9,-83.24 11.3,103.9 131.3,173.72 233.3,150.74 101.9,-22.97 176.7,-118.78 197.3,-221.25 20.6,-102.47 -5.1,-209.38 -35.4,-294.57 -71,-170.01 -143.2,-345.63 -143.3,-529.88 0,-46.42 4.5,-93.07 -1.2,-139.13 -13.6,-109.11 -82.8,-202.07 -149.7,-289.41 -43.7,-57.12 -88.7,-115.47 -149.7,-153.7 -60.9,-38.2 -142.1,-52.59 -204.8,-17.27 -50.7,28.59 -80.9,84.8 -91.9,141.97 -11,57.17 -5.2,116.05 1.4,149.58 -2.8,-62.34 -5.5,-125.93 11.5,-185.96 17,-60.03 57.3,-116.99 116.3,-137.34 95.5,-32.98 194.9,38.42 259.8,115.86 69.3,82.71 123.6,177.86 159.7,279.53 16.3,45.85 35.8,100.04 82.8,112.76 25.1,6.81 51.7,-0.83 76.6,-8.43 135,-41.12 270,-82.24 448.4,-121.41 164.6,-103.68 271.1,-282 326.7,-468.49 55.6,-186.49 65.7,-383.02 75.4,-577.36 -191.5,-71.54 -407,-77.2 -602,-15.82 36.5,132.11 3.8,272.14 -23.9,406.39 -27.7,134.26 -49.3,279.09 6.7,404.2 56.1,125.11 220.4,210.13 335.6,135.74 79.8,-51.63 106,-154.33 125.7,-247.37 53.6,-253.05 107.3,-506.1 161,-759.16 22.9,-108.11 45.4,-223.06 7.4,-326.86 -37.9,-103.78 -161.5,-184.24 -256.1,-170.26 70.5,-386.16 140.9,-772.31 211.4,-1158.47 10.6,-58.49 20.8,-121.43 -4.3,-175.33 -24.1,-51.68 -75.7,-84.23 -125.8,-111.33 -260,-140.55 -551.4,-213.37 -843.1,-260.6 -152.9,-24.77 -317.8,-41.11 -455.7,29.54 -137.9,70.66 -225.58,180.23 -237.47,358.7 43.47,4.97 86.97,9.94 130.47,14.91 -24,25.35 -47.9,50.69 -71.9,76.01 49,-74.42 157.9,-101.66 236.2,-59.12 -9.3,36.11 -33.1,66.48 -56.3,95.67 -59.5,74.86 -118.9,149.72 -178.4,224.58 28.4,-14.28 49.3,-105.51 70.4,-129.43 21,-23.94 58.5,-41.68 83.6,-22.08 15.6,12.14 -27.8,247.07 -78.9,301.28 -69,73.15 -101.1,37.76 -203.88,100.4 -22.9,33.31 -67.11,50.39 -106.46,41.1 -39.35,-9.25 -71.29,-44.26 -76.95,-84.27 30.32,-27.49 34.11,-79.37 8.13,-110.97 -26.01,-31.61 -77.63,-37.9 -110.45,-13.46 -9.83,-34.05 -19.69,-68.07 -21.53,-92.57 59.07,-6.67 94.14,-68.6 113.22,-124.86 19.12,-56.3 36.28,-120.23 87.19,-150.9 24.5,30.32 23.98,78.07 -1.2,107.81 0.41,-28.42 1.09,-58 13.81,-83.43 12.71,-25.45 41.24,-45.39 68.9,-38.66 27.65,6.7 42.23,48.14 19.77,65.58 -4.7,-55.94 39.71,-111.58 91.14,-96.69 65.71,18.2 126.71,52.8 176.01,99.82 168,-48.83 342.5,-75.25 529.1,-84.64 -12.5,355.02 -24.9,710.03 -35.9,1058.1 30.1,0.68 60.2,-13.71 78.6,-37.62 22.7,25.97 45.5,51.95 68.3,77.9 -11.9,-367.86 -35.7,-735.37 -71.5,-1101.7 -6.6,357.49 -13.2,714.97 -19.8,1072.43 -353,3.62 -711.5,82.82 -1070.51,79.75 -36.01,-98.89 -71.59,-210.88 -26.2,-305.81 38.42,-80.4 96.85,-146.83 191.07,-188.22 -55.83,-12.71 -106.05,-48.52 -136.31,-97.15 -32.66,22.05 -82.83,-3.32 -91.12,-41.82 -8.27,-38.53 19.33,-78.82 56.13,-92.88 26.47,-10.1 59.23,-7.69 79.66,11.97 20.41,19.67 21.92,57.86 -0.87,74.7 -20.3,14.96 -50.51,8.15 -69.34,-8.57 -18.84,-16.72 -29.03,-40.86 -38.64,-64.15 -16.94,-41.13 -32.9,-91.72 -5.77,-126.95 23.37,-30.37 67.67,-33.75 99.58,-54.95 24.13,-16.01 40.06,-41.49 60.77,-61.73 22.46,-22 50.25,-37.57 77.68,-52.89 49.41,-27.57 105.7,-56.08 150.97,-44.43 -70.42,-606.39 309.4,-1489.92 376.2,-1615.17 57,-203.05 114,-406.12 148.4,-646.62 116.1,-586.43 232.1,-1172.89 336.6,-1741.16 1.5,-62.67 3.1,-125.33 4.6,-188.03 46.4,6.18 94.4,-0.11 124.6,-44.57 -46.6,-132.63 15.6,-322.497 -68.5,-435.169 -84.1,-112.672 -321.6,-146.697 -462.1,-149.278 -34.7,-0.632 -70.4,4.285 -100.3,21.721 -30,17.439 -53.1,49.156 -53.3,83.784 -0.4,59.261 59.5,98.008 110.6,127.941 158.6,92.841 302.3,211.011 424.5,344.281 66.8,11.67 137.4,-0.06 196.7,-32.68 -43.7,-136.04 -87.5,-272.059 -131.3,-408.098 -10.3,-32.131 -20.2,-69.038 -2.8,-97.982 21.7,-36.221 72.3,-38.912 114.5,-37.374 101.6,3.734 203.3,7.443 304.9,11.178 71.5,2.607 153.3,10.351 195.6,68.047 43.3,59.041 24.3,141.286 3.5,211.479 -21.3,71.78 -45.3,147.87 -102.8,195.82 -84.1,70.08 -207.5,56.08 -315.5,38.23 142.9,15.76 258.2,4.06 401.1,19.82 -40.5,345.41 28.8,1157.65 -26.4,1545.37 -13.6,98.42 0.3,251.79 6.2,339.61 34.2,748.28 68.3,1496.56 91.2,2237.35 -254,-111.08 -507.9,-222.16 -761.9,-333.27 -36.6,-16.01 -74.7,-33.09 -99.8,-64.2 -42.6,-52.84 -35.7,-128.74 -26.5,-196.07 36.7,-268.76 73.4,-537.55 116.6,-832.92 16.8,-202.09 33.6,-404.14 50.4,-606.23 130.9,3.54 261.8,7.09 392.8,10.63 -95.6,69.5 -240.4,36.11 -319.3,-51.87 -78.9,-87.99 -101,-214.91 -89.7,-332.56 11.2,-117.64 51.9,-230.12 84.5,-343.7 32.6,-113.6 57.6,-233.14 67.9,-371.24 25.7,-328.93 51.3,-657.85 77,-986.78 2,-26.09 4.6,-53.66 19.9,-74.92 40.8,-56.7 128.9,-27.87 197.9,-38.8 79.4,-12.6 138.2,-85.62 159,-163.25 20.7,-77.608 11,-159.688 1.2,-239.434 180.6,-1.401 4672.5,-2.829 4853.1,-4.23"/>
      </g>
    </g>
  </g>
</svg>