<?xml version="1.0" encoding="utf-8"?>
<svg viewBox="20.536 928.169 4158.935 1546.332" xmlns="http://www.w3.org/2000/svg">
  <g transform="matrix(1.333333, 0, 0, -1.333333, 0, 2800)" id="g10">
    <g transform="scale(0.1)" id="g12">
      <g transform="scale(1.92307)" id="g18">
        <path id="path20" style="fill:none;stroke:#363435;stroke-width:49.92079926;stroke-linecap:round;stroke-linejoin:round;stroke-miterlimit:10;stroke-dasharray:none;stroke-opacity:1" d="m 80.0906,2536.47 c 489.8264,77.38 11036.0094,45.34 11113.3094,-6.19 0,0 334.1,-366.86 -112.5,-135.98 -446.5,231.09 -292.5,1170.42 -215.5,1093.46 77,-77.01 123.2,-307.89 877.7,-769.97 754.6,-462.02 1108.8,-415.79 1262.7,-354.17 154,61.57 939.3,1077.86 754.6,1124.14 -184.8,46.12 -1878.7,538.88 -1878.7,538.88 0,0 -1401.4,3187.6 -1262.8,3264.71 138.6,77.02 3480.3,-369.71 3634.3,-585.28 153.9,-215.56 1909.5,-3510.86 1601.4,-3510.86 -307.9,0 -1663,169.31 -1786.2,369.51 -123.3,200.25 -708.4,2001.86 -308,1370.47 400.3,-631.34 569.8,-1385.81 554.4,-1693.91 -15.5,-307.89 -107.9,-816.09 -107.9,-908.39 0,-92.51 446.6,-292.66 354.3,-138.64 -92.4,153.98 -385,307.95 -462,15.4 -77.1,-292.55 -400.4,-970.22 -277.2,-846.93 123.1,123.19 292.6,523.49 292.6,400.4 0,-123.29 107.7,-677.61 123.1,-431.29 15.5,246.43 92.5,585.27 107.8,462.02 15.4,-123.24 123.3,-646.78 107.9,-230.93 -15.5,415.74 -200.2,585.11 -123.2,1000.85 76.9,415.84 431.2,1031.73 184.7,1016.34 -246.3,-15.39 -985.6,123.24 -1432.1,230.99 -446.5,107.8 -1077.9,231.09 -1154.9,431.24 -76.9,200.04 -754.6,1724.68 -800.7,1740.04 -46.3,15.37 -954.8,-200.24 -954.8,-415.8 0,-215.54 246.4,-1339.74 554.4,-1817 307.9,-477.41 1478.3,-1247.38 1740,-1139.69 261.8,107.9 138.6,523.7 46.2,292.71 -92.3,-231.09 -138.6,-369.61 323.5,-446.63 461.9,-76.96 3206.8,-61.31 3463.5,-33.9"/>
      </g>
    </g>
  </g>
</svg>