<?xml version="1.0" encoding="iso-8859-1"?><!-- Generator: Adobe Illustrator 21.1.0, SVG Export Plug-In . SVG Version: 6.00 Build 0)  --><svg xmlns="http://www.w3.org/2000/svg" xmlns:xlink="http://www.w3.org/1999/xlink" viewBox="0 0 50 50" width="100px" height="100px"><polyline style="fill:none;stroke:#000000;stroke-width:2;stroke-miterlimit:10;" points="15.1,23.7 24,32 44,8.4 "/><path d="M44.364,12.612l-1.37,1.617C44.889,17.383,46,21.06,46,25c0,11.579-9.421,21-21,21S4,36.579,4,25S13.421,4,25,4c5.443,0,10.393,2.099,14.128,5.509l1.309-1.544C36.352,4.26,30.935,2,25,2C12.317,2,2,12.317,2,25s10.317,23,23,23s23-10.317,23-23C48,20.44,46.661,16.19,44.364,12.612z"/></svg>